<svg id="SecureInfrastructureVPCRegulatedIndustries" xmlns="http://www.w3.org/2000/svg" xmlns:xlink="http://www.w3.org/1999/xlink" viewBox="0 0 32 32"><defs><linearGradient id="asr9dtx77a" x1="-1795.208" y1="-2925.557" x2="-1795.208" y2="-2945.173" gradientTransform="matrix(1.06 0 0 -.669 1911.334 -1957.818)" gradientUnits="userSpaceOnUse"><stop offset="0"/><stop offset=".8" stop-opacity="0"/></linearGradient><linearGradient id="bsakf33m1b" x1="468.584" y1="-6511.702" x2="468.584" y2="-6531.318" gradientTransform="matrix(1.06 0 0 .669 -487.325 4388.444)" xlink:href="#asr9dtx77a"/><linearGradient id="rtlyuplx8c" x1="-836.639" y1="-6691.916" x2="-836.639" y2="-6697.896" gradientTransform="matrix(1.06 0 0 .669 913.644 4490.011)" xlink:href="#asr9dtx77a"/><linearGradient id="dv39xcqucd" x1="-1912.566" y1="-3332.058" x2="-1912.566" y2="-3339.653" gradientTransform="matrix(1.06 0 0 .669 2046.031 2235.427)" xlink:href="#asr9dtx77a"/><mask id="n5w2xbe5oe" x="0" y="-1.331" width="32" height="34.63" maskUnits="userSpaceOnUse"><path d="M15.982 30c-7.72 0-14-6.28-14-14s6.28-14 14-14 14 6.28 14 14-6.28 14-14 14zm0-26c-6.617 0-12 5.383-12 12s5.383 12 12 12 12-5.383 12-12-5.383-12-12-12z" style="fill:#fff"/><path d="M15.982 16H30.69v14.708H15.982zM6.982 20l-6 5.494V6.807l6 5.015V20zM21.982 1h8.901v9.18h-8.901z"/><path transform="rotate(-135 9.175 5.555)" style="fill:url(#asr9dtx77a)" d="M5.996-1.005h6.357v13.12H5.996z"/><path transform="rotate(135 9.175 26.412)" style="fill:url(#bsakf33m1b)" d="M5.996 19.852h6.357v13.12H5.996z"/><path transform="rotate(180 27.161 12)" style="fill:url(#rtlyuplx8c)" d="M23.982 10h6.357v4h-6.357z"/><path transform="rotate(-90 19.523 4.178)" style="fill:url(#dv39xcqucd)" d="M16.344 1.639h6.357v5.08h-6.357z"/><path d="M8.982 21h-6c-1.103 0-2-.897-2-2v-6c0-1.103.897-2 2-2h6c1.103 0 2 .897 2 2v6c0 1.103-.897 2-2 2zm-6-8v6h6.001v-6H2.982zM26.99 10h-3.008c-1.103 0-2-.897-2-2V4.992c0-1.103.897-2 2-2h3.008c1.103 0 2 .897 2 2V8c0 1.103-.897 2-2 2zm-3.008-5.008V8h3.009V4.992h-3.009z" style="fill:#fff"/></mask></defs><g style="mask:url(#n5w2xbe5oe)"><path id="Color" style="fill:#fff" d="M0 0h32v32H0z"/></g><path d="m22.982 30-2.139-1.013a5.022 5.022 0 0 1-2.861-4.52v-6.468h10v6.468a5.023 5.023 0 0 1-2.861 4.52L22.982 30zm-3-10v4.468c0 1.153.674 2.218 1.717 2.711l1.283.607 1.283-.607a3.012 3.012 0 0 0 1.717-2.711V20h-6z" style="fill:#fff"/></svg>
