<svg id="VSIonVPCRegulatedIndustries" xmlns="http://www.w3.org/2000/svg" xmlns:xlink="http://www.w3.org/1999/xlink" viewBox="0 0 32 32"><defs><linearGradient id="k0ffhej2wa" x1="-1895.249" y1="-2988.987" x2="-1895.249" y2="-3008.603" gradientTransform="matrix(1.06 0 0 -.669 2017.335 -2000.244)" gradientUnits="userSpaceOnUse"><stop offset="0"/><stop offset=".8" stop-opacity="0"/></linearGradient><linearGradient id="0oibq5bnfb" x1="368.543" y1="-6575.132" x2="368.543" y2="-6594.748" gradientTransform="matrix(1.06 0 0 .669 -381.324 4430.871)" xlink:href="#k0ffhej2wa"/><linearGradient id="p1s2suy3yc" x1="-953.266" y1="-6691.916" x2="-953.266" y2="-6697.896" gradientTransform="matrix(1.06 0 0 .669 1037.218 4490.011)" xlink:href="#k0ffhej2wa"/><linearGradient id="ilj6wy2udd" x1="-1972.566" y1="-3242.355" x2="-1972.566" y2="-3249.949" gradientTransform="matrix(1.06 0 0 .669 2109.606 2175.427)" xlink:href="#k0ffhej2wa"/><mask id="44o8cq4u0e" x="0" y="-1.331" width="32" height="34.63" maskUnits="userSpaceOnUse"><path d="M15.982 30c-7.72 0-14-6.28-14-14s6.281-14 14-14 14 6.28 14 14-6.28 14-14 14zm0-26c-6.617 0-12 5.383-12 12s5.383 12 12 12 12-5.383 12-12-5.383-12-12-12z" style="fill:#fff"/><path d="M15.982 16H30.69v14.708H15.982zM6.982 20l-6 5.494V6.807l6 5.015V20zM21.982 1h8.901v9.18h-8.901z"/><path transform="rotate(-135 9.175 5.555)" style="fill:url(#k0ffhej2wa)" d="M5.996-1.005h6.357v13.12H5.996z"/><path transform="rotate(135 9.175 26.412)" style="fill:url(#0oibq5bnfb)" d="M5.996 19.852h6.357v13.12H5.996z"/><path transform="rotate(180 27.161 12)" style="fill:url(#p1s2suy3yc)" d="M23.982 10h6.357v4h-6.357z"/><path transform="rotate(-90 19.523 4.178)" style="fill:url(#ilj6wy2udd)" d="M16.344 1.639h6.357v5.08h-6.357z"/><path d="M8.982 20.98h-6c-1.103 0-2-.897-2-2v-6c0-1.103.897-2 2-2h6c1.103 0 2 .897 2 2v6c0 1.103-.897 2-2 2zm-6-8v6h6.001v-6H2.982zM26.99 9.98h-3.008c-1.103 0-2-.897-2-2V4.972c0-1.103.897-2 2-2h3.008c1.103 0 2 .897 2 2V7.98c0 1.103-.897 2-2 2zm-3.008-5.008V7.98h3.009V4.972h-3.009z" style="fill:#fff"/></mask></defs><g style="mask:url(#44o8cq4u0e)"><path id="Color" d="M0 0h32v32H0z"/></g><path d="M28.002 29.981h-8c-1.103 0-2-.897-2-2v-8c0-1.103.897-2 2-2h8c1.103 0 2 .897 2 2v8c0 1.103-.897 2-2 2zm-8-10v8h8.001v-8h-8.001z"/></svg>
