<svg id="VSIonVPCRegulatedIndustries" xmlns="http://www.w3.org/2000/svg" xmlns:xlink="http://www.w3.org/1999/xlink" viewBox="0 0 32 32"><defs><linearGradient id="hni5sju7ha" x1="-1795.208" y1="-2925.557" x2="-1795.208" y2="-2945.173" gradientTransform="matrix(1.06 0 0 -.669 1911.334 -1957.818)" gradientUnits="userSpaceOnUse"><stop offset="0"/><stop offset=".8" stop-opacity="0"/></linearGradient><linearGradient id="ppeonwgoub" x1="468.584" y1="-6511.702" x2="468.584" y2="-6531.318" gradientTransform="matrix(1.06 0 0 .669 -487.325 4388.444)" xlink:href="#hni5sju7ha"/><linearGradient id="ml1wch3q9c" x1="-836.639" y1="-6691.916" x2="-836.639" y2="-6697.896" gradientTransform="matrix(1.06 0 0 .669 913.644 4490.011)" xlink:href="#hni5sju7ha"/><linearGradient id="yc4a1ovt9d" x1="-1912.566" y1="-3332.058" x2="-1912.566" y2="-3339.653" gradientTransform="matrix(1.06 0 0 .669 2046.031 2235.427)" xlink:href="#hni5sju7ha"/><mask id="6grax9z9je" x="0" y="-1.331" width="32" height="34.63" maskUnits="userSpaceOnUse"><path d="M15.982 30c-7.72 0-14-6.28-14-14s6.281-14 14-14 14 6.28 14 14-6.28 14-14 14zm0-26c-6.617 0-12 5.383-12 12s5.383 12 12 12 12-5.383 12-12-5.383-12-12-12z" style="fill:#fff"/><path d="M15.982 16H30.69v14.708H15.982zM6.982 20l-6 5.494V6.807l6 5.015V20zM21.982 1h8.901v9.18h-8.901z"/><path transform="rotate(-135 9.175 5.555)" style="fill:url(#hni5sju7ha)" d="M5.996-1.005h6.357v13.12H5.996z"/><path transform="rotate(135 9.175 26.412)" style="fill:url(#ppeonwgoub)" d="M5.996 19.852h6.357v13.12H5.996z"/><path transform="rotate(180 27.161 12)" style="fill:url(#ml1wch3q9c)" d="M23.982 10h6.357v4h-6.357z"/><path transform="rotate(-90 19.523 4.178)" style="fill:url(#yc4a1ovt9d)" d="M16.344 1.639h6.357v5.08h-6.357z"/><path d="M8.982 20.98h-6c-1.103 0-2-.897-2-2v-6c0-1.103.897-2 2-2h6c1.103 0 2 .897 2 2v6c0 1.103-.897 2-2 2zm-6-8v6h6.001v-6H2.982zM26.99 9.98h-3.008c-1.103 0-2-.897-2-2V4.972c0-1.103.897-2 2-2h3.008c1.103 0 2 .897 2 2V7.98c0 1.103-.897 2-2 2zm-3.008-5.008V7.98h3.009V4.972h-3.009z" style="fill:#fff"/></mask></defs><g style="mask:url(#6grax9z9je)"><path id="Color" style="fill:#fff" d="M0 0h32v32H0z"/></g><path d="M28.002 29.981h-8c-1.103 0-2-.897-2-2v-8c0-1.103.897-2 2-2h8c1.103 0 2 .897 2 2v8c0 1.103-.897 2-2 2zm-8-10v8h8.001v-8h-8.001z" style="fill:#fff"/></svg>
